PathFileType	4	(X/Y/Z)	Shrugging.trc																																																																									
DataRate	CameraRate	NumFrames	NumMarkers	Units	OrigDataRate	OrigDataStartFrame	OrigNumFrames																																																																					
100	100	9	25	mm	100	1791	2047																																																																					
Frame#	Time	AA			AI			Ant_Sh			CV7			GH			LAH			Lat_Sh			LCAJ			LPH			Post_Sh			RAH			RCAJ			RHLE			RHME			RPH			RUA			SJN			SXS			TS			TV8			centelbow			centpxt8			centijc7			centLPHRPH			ScapulaThoracicContactPt		
		X1	Y1	Z1	X2	Y2	Z2	X3	Y3	Z3	X4	Y4	Z4	X5	Y5	Z5	X6	Y6	Z6	X7	Y7	Z7	X8	Y8	Z8	X9	Y9	Z9	X10	Y10	Z10	X11	Y11	Z11	X12	Y12	Z12	X13	Y13	Z13	X14	Y14	Z14	X15	Y15	Z15	X16	Y16	Z16	X17	Y17	Z17	X18	Y18	Z18	X19	Y19	Z19	X20	Y20	Z20	X21	Y21	Z21	X22	Y22	Z22	X23	Y23	Z23	X24	Y24	Z24	X25	Y25	Z25
																																																																												
1792	17.91	-86.56101227	1612.317871	1047.918091	-122.9855194	1406.464355	1004.980164	25.22534752	1577.9729	1059.019531	-83.45776367	1613.057861	876.2764282	-29.94890404	1575.520264	1055.069092	140.2870483	1773.462036	838.9776001	-33.28018188	1602.208862	1085.026123	-21.65816116	1634.477173	736.6556396	-69.96013641	1737.804932	816.9633789	-114.3844452	1571.766846	1049.02356	126.7156677	1776.390625	935.204834	-29.19458961	1637.633667	1016.182983	-39.70827103	1323.055542	1204.784912	-59.62579346	1261.431396	1101.178101	-71.35424042	1742.030273	932.9013672	-116.8299103	1444.057495	1125.69751	77.35552216	1537.120239	889.6343384	147.4165955	1359.452393	896.9511108	-135.3350677	1543.873047	953.6430054	-96.17910767	1315.015869	874.4109497	-49.66703224	1292.243469	1152.981506	25.6187439	1337.234131	885.6810303	-3.051120758	1575.08905	882.9553833	-70.65718842	1739.917603	874.932373	-114.9605331	1520.885091	1002.18042
1793	17.92	-86.58107758	1611.620239	1048.696289	-122.9630508	1405.919922	1005.042236	25.27018547	1577.209473	1059.652222	-83.60874939	1612.828125	876.0321045	-29.9435463	1574.754761	1055.680176	140.4604187	1773.307983	838.9987793	-33.27846146	1601.118652	1085.744385	-21.51570702	1633.669556	735.9490356	-69.97704315	1737.908081	816.8638306	-114.4324188	1570.998413	1049.602173	126.811882	1776.300415	935.0576782	-28.0408802	1636.822388	1016.568115	-39.90195847	1321.964966	1204.9823	-59.63255692	1260.523193	1101.247559	-71.40837097	1742.148193	932.7717285	-116.8388672	1442.950562	1125.813965	77.21662903	1536.945435	889.7141724	147.2979126	1359.375732	897.043457	-135.2673187	1543.353638	953.9172363	-96.21495819	1314.915039	874.3204346	-49.76725769	1291.24408	1153.114929	25.5414772	1337.145386	885.6819458	-3.196060181	1574.88678	882.8731384	-70.69270706	1740.028137	874.8177795	-114.937149	1520.297933	1002.551921
1794	17.93	-86.39811707	1610.645142	1049.380127	-123.0897522	1405.18103	1005.091125	25.32995987	1576.081787	1060.350464	-83.73421478	1612.618164	875.8831177	-29.81448746	1573.727051	1056.422852	140.5498505	1773.220459	839.0645752	-33.09631348	1600.142334	1086.664063	-21.22340965	1633.016846	735.1196899	-70.10227203	1738.083862	816.78479	-114.3148346	1570.118774	1050.404541	126.8520889	1776.231934	934.9771729	-28.23712158	1636.109985	1017.666748	-39.92308426	1320.640137	1205.196533	-59.64217758	1259.232544	1101.244751	-71.46445465	1742.320068	932.6939087	-116.8087921	1441.546631	1126.021484	77.03926086	1536.732544	889.7358398	147.1621552	1359.232056	897.1499023	-135.29776	1542.662231	954.3305054	-96.43491364	1314.848633	874.2105103	-49.78263092	1289.93634	1153.220642	25.36362076	1337.040344	885.6802063	-3.347476959	1574.675354	882.8094788	-70.78336334	1740.201965	874.7393494	-114.9285431	1519.496134	1002.933919
1795	17.94	-86.27521515	1609.52832	1050.547241	-123.1489563	1404.626221	1005.146362	25.43783569	1574.757446	1061.074463	-83.94643402	1612.460571	875.72229	-29.83566284	1572.516479	1057.206421	140.8422089	1773.027954	839.1699219	-33.03726959	1598.628296	1087.829102	-21.16200638	1632.055298	734.2084961	-70.10771942	1738.18396	816.6269531	-114.0534134	1569.101807	1051.31311	126.8330765	1776.076538	934.8800049	-28.14600372	1635.194824	1018.803284	-39.89694214	1319.043823	1205.356567	-59.52940369	1258.099731	1101.084473	-71.54932404	1742.486816	932.5380859	-116.6940689	1439.957764	1126.255005	76.89716339	1536.446655	889.7757568	146.9224701	1359.116943	897.2700806	-135.1685028	1541.850464	954.815918	-96.5809021	1314.755371	874.177124	-49.71317291	1288.571777	1153.22052	25.170784	1336.936157	885.7236023	-3.524635315	1574.453613	882.7490234	-70.82852173	1740.335388	874.5825195	-114.8642248	1518.668335	1003.503174
1796	17.95	-86.15102386	1608.293823	1051.870483	-123.2779388	1403.717896	1005.309387	25.54806519	1573.275269	1061.977783	-85.33927155	1612.613159	875.4053345	-29.60531998	1571.207031	1058.103394	140.5540771	1772.788696	838.7680664	-32.74547577	1597.22876	1088.914185	-21.05511665	1630.817505	733.0969238	-70.18037415	1738.34314	816.4656982	-114.0213928	1568.041748	1052.17334	126.8922195	1775.942261	934.703064	-28.68867493	1633.971924	1020.479736	-39.6692276	1317.126587	1205.56543	-59.35210419	1256.488892	1101.203979	-71.72085571	1742.687866	932.3591919	-116.4744339	1437.946167	1126.596069	76.78017426	1536.1521	889.74646	146.616272	1358.944946	897.3329468	-135.088623	1541.0354	955.2929688	-96.72722626	1314.613159	874.1351929	-49.51066589	1286.807739	1153.384705	24.94452286	1336.779053	885.7340698	-4.279548645	1574.382629	882.5758972	-70.95061493	1740.515503	874.4124451	-114.8391953	1517.682373	1004.157613
1797	17.96	-85.87678528	1606.698242	1053.020386	-123.4793015	1402.550049	1005.463928	25.71390724	1571.525391	1063.000977	-85.69198608	1612.069458	875.1726685	-29.54236984	1569.565796	1059.182007	140.5012512	1772.478638	838.5625	-32.6018486	1595.184082	1090.304443	-20.82657433	1629.549438	731.8456421	-70.26269531	1738.483521	816.2958984	-113.6428757	1566.583496	1053.369507	126.9743805	1775.805054	934.5459595	-27.87930489	1632.605469	1021.589233	-39.77766037	1314.997681	1205.742432	-59.16469193	1254.76416	1100.921631	-71.81330109	1742.812378	932.1990967	-116.1557083	1435.837891	1127.042114	76.67129517	1535.791992	889.6495361	146.3570557	1358.725708	897.3768921	-135.00737	1540.107788	955.7224731	-96.82559967	1314.424927	874.0728149	-49.47117615	1284.88092	1153.332031	24.765728	1336.575317	885.7248535	-4.510345459	1573.930725	882.4111023	-71.0379982	1740.647949	874.2474976	-114.7878189	1516.452026	1004.735596
1798	17.97	-85.58579254	1604.942871	1054.625488	-123.5980301	1401.604858	1005.601135	25.77050972	1569.499268	1064.196899	-85.87663269	1611.484375	874.8729248	-29.40876579	1567.711914	1060.351196	140.5828552	1772.192139	838.3901978	-32.41675949	1593.139648	1091.692383	-20.50833702	1628.038208	730.4176025	-70.27575684	1738.566406	816.1351318	-113.2567978	1564.99585	1054.507446	126.9470367	1775.644897	934.378479	-27.58176613	1631.104492	1023.206421	-39.41898346	1312.670654	1205.796021	-58.80327225	1252.636963	1100.907471	-71.78390503	1742.941162	932.078064	-115.8385849	1433.354614	1127.485229	76.5357666	1535.464722	889.5881958	145.9490356	1358.372314	897.3421631	-134.7602844	1539.158203	956.2299194	-96.92878723	1314.20813	874.0158081	-49.11112785	1282.653809	1153.351746	24.51012421	1336.290222	885.6789856	-4.670433044	1573.474548	882.2305603	-71.02983093	1740.753784	874.1065979	-114.6480357	1515.235311	1005.485514
1799	17.98	-85.4877243	1602.9823	1056.006104	-123.6269989	1400.369629	1005.818298	25.86629295	1567.472168	1065.410034	-86.0647583	1610.796387	874.6295166	-29.17311859	1565.838745	1061.632568	140.4660339	1771.958252	838.1188965	-32.08240128	1590.894409	1093.187256	-20.08267021	1626.453247	728.8370972	-70.38803864	1738.670898	816.0231323	-113.1875687	1563.345337	1055.866455	127.1862335	1775.504272	934.0947266	-28.02033615	1629.422607	1025.233276	-38.94556046	1309.960205	1205.853271	-58.50957489	1250.321411	1100.575195	-71.82790375	1743.107422	931.944519	-115.5314102	1430.660522	1127.884521	76.42150879	1535.097168	889.4609985	143.3262177	1357.822144	897.2867432	-134.7536621	1537.918823	956.8608398	-97.0811615	1313.914185	873.9578857	-48.72756767	1280.140808	1153.214233	23.12252808	1335.868164	885.6223145	-4.821624756	1572.946777	882.0452576	-71.10797119	1740.88916	873.9838257	-114.6227951	1513.756917	1006.228414
1800	17.99	-85.14717865	1600.891357	1057.688965	-123.9972305	1398.940796	1005.988098	26.04590225	1564.994751	1066.684692	-86.18500519	1610.346069	874.4249878	-29.1194973	1563.517822	1062.965942	140.3521881	1771.718384	837.8198853	-31.92306519	1588.456177	1094.651001	-19.44085121	1624.764648	727.1251221	-70.55410004	1738.703369	815.9576416	-112.8418884	1561.276489	1057.322144	127.3745651	1775.318359	933.7403564	-27.15898132	1627.435425	1026.731323	-38.67183304	1306.862549	1205.829346	-58.22175598	1247.865723	1100.269897	-71.85005951	1743.193481	931.8502197	-115.1224594	1427.807739	1128.479614	76.32494354	1534.770874	889.335083	143.0617828	1357.585938	897.2144165	-134.5293121	1536.822754	957.5808716	-97.28199768	1313.600098	873.8815308	-48.44679451	1277.364136	1153.049622	22.88989258	1335.593018	885.5479736	-4.930030823	1572.558472	881.8800354	-71.20207977	1740.948425	873.9039307	-114.5579071	1512.218302	1007.085978
